# xmcd
#
# Track frame offsets: 
#        150
#        20179
#        35067
#        54625
#        75746
#        98487
#        120695
#        138331
#        155742
#        178906
#        197852
#
# Disc length: 3031 seconds
#
# Revision: 0
# Processed by: cddbd v1.5.2PL0 Copyright (c) Steve Scherf et al.
# Submitted via: ExactAudioCopyFreeDBPlugin 1.0
#
DISCID=9c0bd50b
DTITLE=American Aquarium - Live in Raleigh
DYEAR=1900
DGENRE=
TTITLE0=Katherine Belle [Live]
TTITLE1=Ain't Going to the Bar [Live]
TTITLE2=Nothing to Lose [Live]
TTITLE3=TN [Live]
TTITLE4=LBQ [Live]
TTITLE5=Anne Marie [Live]
TTITLE6=Rattlesnake [Live]
TTITLE7=Betting Man [Live]
TTITLE8=Hurricane [Live]
TTITLE9=Good Fight (with Cary Ann Hearst) [Live]
TTITLE10=I Hope He Breaks Your Heart [Live]
EXTD=
EXTT0=
EXTT1=
EXTT2=
EXTT3=
EXTT4=
EXTT5=
EXTT6=
EXTT7=
EXTT8=
EXTT9=
EXTT10=
PLAYORDER=
